<svg xmlns="http://www.w3.org/2000/svg" viewBox="0 0 1920 1080"><g id="レイヤー_2" data-name="レイヤー 2"><g id="lab-image"><rect width="1920" height="1080" style="fill:#0084b4"/><path d="M953.94,582.48a13.2,13.2,0,0,1-13.2-13.2v-70.8h27.12v57.84a5.27,5.27,0,0,0,5.28,5.28h31.52a10,10,0,0,1,10,10v10.88Z" style="fill:#fff"/><path d="M1050.93,507.72c2.23-6.24,5.27-10.2,16.23-10.2,6.69,0,13,.84,16.23,10.2l26.27,74.76H1092.8a10,10,0,0,1-9.52-6.93l-3.34-10.35h-25.56L1051,575.55a10,10,0,0,1-9.52,6.93h-16.86Zm8.92,38.28h14.61l-6.39-21.24c-.2-.84-.51-1.8-.91-1.8s-.71,1-.92,1.8Z" style="fill:#fff"/><path d="M1203.05,558.48c0,15.6-4.8,23.52-22.79,23.52h-47.4a13.2,13.2,0,0,1-13.2-13.2V511.2a13.2,13.2,0,0,1,13.2-13.2h44.44a23.77,23.77,0,0,1,23.83,24c-.11,8.2-3.29,15-12.59,16.82v.48C1200.42,541.44,1203.05,547.68,1203.05,558.48Zm-56.27-28.2h21.28a6.14,6.14,0,0,0,6.2-6.07c0-4.74-2.67-5.81-7.44-5.81h-15.24a4.8,4.8,0,0,0-4.8,4.8Zm0,25.32a6,6,0,0,0,6,6h16.3a6.78,6.78,0,0,0,6.85-6.9c-.18-4.47-3.26-5.94-7.91-5.94h-21.24Z" style="fill:#fff"/><g id="角丸2"><path d="M849.64,571.12a10,10,0,0,1,10-10h37.63c4.14,0,4.89-1.32,4.89-2.64,0-2.52-2.76-3.36-5.64-4.2l-34-9.12c-11.41-3-14.79-13.08-14.79-25.08,0-13.2,5.51-22.08,20.56-22.08h57.91v10.88a10,10,0,0,1-10,10H881.6c-2.5,0-6,0-6,2.64,0,2.88,4,3.84,7.39,4.68l29.59,7.56c13.41,3.36,18.17,10.68,18.17,25.08s-5,23.16-21.31,23.16H849.64Z" style="fill:#fff"/><path d="M727.82,581.8a10,10,0,0,0,10-10V532.16c0-4.14,1.32-4.89,2.64-4.89,2.52,0,3.36,2.76,4.2,5.64l9.12,34c3,11.41,13.08,14.79,25.08,14.79,13.2,0,22.08-5.51,22.08-20.55V498.2H790.06a10,10,0,0,0-10,10v39.63c0,2.51,0,6-2.64,6-2.88,0-3.84-4-4.68-7.4l-7.56-29.58c-3.36-13.42-10.68-18.18-25.08-18.18S717,503.7,717,520v61.8Z" style="fill:#fff"/><path d="M811.06,582V508a10,10,0,0,1,10-10h17.12v74a10,10,0,0,1-10,10Z" style="fill:#fff"/></g></g></g></svg>