<svg xmlns="http://www.w3.org/2000/svg" viewBox="0 0 1349.41 235.83"><g id="レイヤー_2" data-name="レイヤー 2"><g id="lab-banner"><g id="角丸2"><path d="M368.34,204.3a27.76,27.76,0,0,1,27.76-27.76H500.58c11.48,0,13.57-3.66,13.57-7.33,0-7-7.66-9.32-15.66-11.65l-94.3-25.32c-31.66-8.33-41.06-36.31-41.06-69.62,0-36.64,15.31-61.29,57.07-61.29H581v30.2A27.76,27.76,0,0,1,553.2,59.29H457.08c-7,0-16.7,0-16.7,7.33,0,8,11.13,10.66,20.53,13l82.12,21c37.23,9.32,50.45,29.64,50.45,69.61s-13.91,64.29-59.15,64.29h-166Z" style="fill:#80cde8"/><path d="M30.2,233.94A27.76,27.76,0,0,0,58,206.18v-110c0-11.48,3.66-13.57,7.33-13.57,7,0,9.32,7.66,11.66,15.66l25.31,94.3c8.33,31.66,36.31,41.06,69.62,41.06,36.64,0,61.29-15.31,61.29-57.07V1.89H203a27.76,27.76,0,0,0-27.76,27.76v110c0,7,0,16.7-7.33,16.7-8,0-10.66-11.13-13-20.53l-21-82.12C124.58,16.47,104.26,3.25,64.29,3.25S0,17.16,0,62.4V233.94Z" style="fill:#80cde8"/><path d="M261.26,234.5V29.09A27.76,27.76,0,0,1,289,1.33h47.52V206.74a27.76,27.76,0,0,1-27.76,27.76Z" style="fill:#80cde8"/></g><path d="M657.88,235.83a36.64,36.64,0,0,1-36.64-36.64V2.67h75.28V163.22a14.66,14.66,0,0,0,14.66,14.66h87.49a27.76,27.76,0,0,1,27.76,27.76v30.19Z" style="fill:#0084b4"/><path d="M927.12,28.32C933.31,11,941.76,0,972.17,0c18.58,0,36,2.33,45.05,28.32l72.92,207.51h-46.8a27.75,27.75,0,0,1-26.42-19.23l-9.28-28.73H936.69l-9.28,28.73A27.75,27.75,0,0,1,901,235.83H854.19Zm24.77,106.25h40.55l-17.74-59c-.56-2.33-1.41-5-2.53-5s-2,2.66-2.54,5Z" style="fill:#0084b4"/><path d="M1349.41,169.21c0,43.31-13.33,65.29-63.29,65.29H1154.54a36.64,36.64,0,0,1-36.64-36.64V38a36.65,36.65,0,0,1,36.64-36.64h123.38c36.68,0,66.66,29.88,66.15,66.57-.32,22.75-9.14,41.78-35,46.69v1.33C1342.08,121.91,1349.41,139.24,1349.41,169.21ZM1193.18,90.94h59.1c9.35,0,17.23-7.48,17.18-16.84-.06-13.17-7.38-16.14-20.65-16.14h-42.3a13.32,13.32,0,0,0-13.33,13.32Zm0,70.28a16.65,16.65,0,0,0,16.66,16.65h45.24c10.56,0,19.45-8.61,19-19.16-.5-12.4-9-16.48-22-16.48h-59Z" style="fill:#0084b4"/></g></g></svg>