<svg xmlns="http://www.w3.org/2000/svg" viewBox="0 0 598.09 465.25"><g id="レイヤー_2" data-name="レイヤー 2"><g id="dark"><circle cx="299.22" cy="232.63" r="232.63" style="fill:#fff"/><path d="M29.2,375.69a28.78,28.78,0,0,0,40.69,0L272.21,173.36c8.41-8.41,12.63-7.25,15.31-4.57,5.13,5.13,1.23,12.44-2.93,20L234,276.46c-17.1,29.31-3.48,56.7,20.93,81.11,26.85,26.85,56.13,33.69,86.73,3.09L591,111.34,568.89,89.21a28.78,28.78,0,0,0-40.69,0l-201.94,202c-5.1,5.1-12.24,12.24-17.61,6.87-5.86-5.86.35-16,5.52-24.56L359,197.91c20.45-34.12,15.25-58.7-14-88S287.62,73,254.47,106.16L7.07,353.55Z"/><path d="M29.2,375.69a28.78,28.78,0,0,0,40.69,0L272.21,173.36c8.41-8.41,12.63-7.25,15.31-4.57,5.13,5.13,1.23,12.44-2.93,20L234,276.46c-17.1,29.31-3.48,56.7,20.93,81.11,26.85,26.85,56.13,33.69,86.73,3.09L591,111.34,568.89,89.21a28.78,28.78,0,0,0-40.69,0l-201.94,202c-5.1,5.1-12.24,12.24-17.61,6.87-5.86-5.86.35-16,5.52-24.56L359,197.91c20.45-34.12,15.25-58.7-14-88S287.62,73,254.47,106.16L7.07,353.55Z" style="fill:none;stroke:#fff;stroke-width:10px"/><path d="M29.2,375.69a28.78,28.78,0,0,0,40.69,0L272.21,173.36c8.41-8.41,12.63-7.25,15.31-4.57,5.13,5.13,1.23,12.44-2.93,20L234,276.46c-17.1,29.31-3.48,56.7,20.93,81.11,26.85,26.85,56.13,33.69,86.73,3.09L591,111.34,568.89,89.21a28.78,28.78,0,0,0-40.69,0l-201.94,202c-5.1,5.1-12.24,12.24-17.61,6.87-5.86-5.86.35-16,5.52-24.56L359,197.91c20.45-34.12,15.25-58.7-14-88S287.62,73,254.47,106.16L7.07,353.55Z"/></g></g></svg>