<svg xmlns="http://www.w3.org/2000/svg" viewBox="0 0 598.09 609.69"><g id="レイヤー_2" data-name="レイヤー 2"><g id="dark"><path d="M293,609.69a13.2,13.2,0,0,1-13.2-13.2v-70.8H306.9v57.84a5.29,5.29,0,0,0,5.29,5.28H343.7a10,10,0,0,1,10,10v10.88Z" style="fill:#fff"/><path d="M390,534.93c2.24-6.24,5.28-10.2,16.23-10.2,6.7,0,13,.84,16.23,10.2l26.27,74.76H431.84a10,10,0,0,1-9.51-6.93L419,592.41H393.42l-3.34,10.35a10,10,0,0,1-9.52,6.93H363.7Zm8.93,38.28h14.61L407.12,552c-.21-.84-.51-1.8-.92-1.8s-.71,1-.91,1.8Z" style="fill:#fff"/><path d="M542.1,585.69c0,15.6-4.8,23.52-22.8,23.52H471.9A13.2,13.2,0,0,1,458.7,596v-57.6a13.2,13.2,0,0,1,13.2-13.2h44.45a23.77,23.77,0,0,1,23.83,24c-.12,8.2-3.29,15-12.6,16.82v.48C539.46,568.65,542.1,574.89,542.1,585.69Zm-56.28-28.2h21.29a6.14,6.14,0,0,0,6.19-6.07c0-4.74-2.66-5.81-7.44-5.81H490.62a4.8,4.8,0,0,0-4.8,4.8Zm0,25.32a6,6,0,0,0,6,6h16.3a6.76,6.76,0,0,0,6.85-6.9c-.18-4.47-3.25-5.94-7.91-5.94H485.82Z" style="fill:#fff"/><g id="角丸2"><path d="M188.68,598.33a10,10,0,0,1,10-10h37.64c4.13,0,4.89-1.32,4.89-2.64,0-2.52-2.76-3.36-5.64-4.2l-34-9.12c-11.41-3-14.8-13.08-14.8-25.08,0-13.2,5.52-22.08,20.56-22.08h57.91v10.88a10,10,0,0,1-10,10H220.65c-2.51,0-6,0-6,2.64,0,2.88,4,3.84,7.4,4.68L251.61,561c13.41,3.36,18.18,10.68,18.18,25.08s-5,23.16-21.31,23.16h-59.8Z" style="fill:#fff"/><path d="M66.87,609a10,10,0,0,0,10-10V559.37c0-4.14,1.32-4.89,2.64-4.89,2.52,0,3.36,2.76,4.2,5.64l9.12,34c3,11.41,13.08,14.79,25.08,14.79,13.2,0,22.08-5.51,22.08-20.55V525.41H129.11a10,10,0,0,0-10,10V575c0,2.5,0,6-2.64,6-2.88,0-3.84-4-4.68-7.39l-7.56-29.58c-3.36-13.42-10.68-18.18-25.08-18.18S56,530.91,56,547.21V609Z" style="fill:#fff"/><path d="M150.11,609.21v-74a10,10,0,0,1,10-10h17.11v74a10,10,0,0,1-10,10Z" style="fill:#fff"/></g><circle cx="299.22" cy="232.63" r="232.63" style="fill:#fff"/><path d="M29.2,375.69a28.78,28.78,0,0,0,40.69,0L272.21,173.36c8.41-8.41,12.63-7.25,15.31-4.57,5.13,5.13,1.23,12.44-2.93,20L234,276.46c-17.1,29.31-3.48,56.7,20.93,81.11,26.85,26.85,56.13,33.69,86.73,3.09L591,111.34,568.89,89.21a28.78,28.78,0,0,0-40.69,0l-201.94,202c-5.1,5.1-12.24,12.24-17.61,6.87-5.86-5.86.35-16,5.52-24.56L359,197.91c20.45-34.12,15.25-58.7-14-88S287.62,73,254.47,106.16L7.07,353.55Z"/><path d="M29.2,375.69a28.78,28.78,0,0,0,40.69,0L272.21,173.36c8.41-8.41,12.63-7.25,15.31-4.57,5.13,5.13,1.23,12.44-2.93,20L234,276.46c-17.1,29.31-3.48,56.7,20.93,81.11,26.85,26.85,56.13,33.69,86.73,3.09L591,111.34,568.89,89.21a28.78,28.78,0,0,0-40.69,0l-201.94,202c-5.1,5.1-12.24,12.24-17.61,6.87-5.86-5.86.35-16,5.52-24.56L359,197.91c20.45-34.12,15.25-58.7-14-88S287.62,73,254.47,106.16L7.07,353.55Z" style="fill:none;stroke:#fff;stroke-width:10px"/><path d="M29.2,375.69a28.78,28.78,0,0,0,40.69,0L272.21,173.36c8.41-8.41,12.63-7.25,15.31-4.57,5.13,5.13,1.23,12.44-2.93,20L234,276.46c-17.1,29.31-3.48,56.7,20.93,81.11,26.85,26.85,56.13,33.69,86.73,3.09L591,111.34,568.89,89.21a28.78,28.78,0,0,0-40.69,0l-201.94,202c-5.1,5.1-12.24,12.24-17.61,6.87-5.86-5.86.35-16,5.52-24.56L359,197.91c20.45-34.12,15.25-58.7-14-88S287.62,73,254.47,106.16L7.07,353.55Z"/></g></g></svg>