<svg xmlns="http://www.w3.org/2000/svg" viewBox="0 0 583.95 609.87"><g id="レイヤー_2" data-name="レイヤー 2"><g id="pass-logo"><path d="M493.08,598.51a10,10,0,0,1,10-10h37.64c4.13,0,4.89-1.32,4.89-2.64,0-2.52-2.76-3.36-5.64-4.2l-34-9.12c-11.41-3-14.8-13.08-14.8-25.07,0-13.2,5.52-22.08,20.56-22.08h57.91v10.88a10,10,0,0,1-10,10H525.05c-2.51,0-6,0-6,2.64,0,2.87,4,3.83,7.4,4.67L556,561.15c13.41,3.36,18.18,10.68,18.18,25.08s-5,23.16-21.31,23.16h-59.8Z" style="fill:#333"/><path d="M402.56,598.87a10,10,0,0,1,10-10H450.2c4.13,0,4.88-1.32,4.88-2.64,0-2.52-2.75-3.36-5.64-4.2l-34-9.12c-11.4-3-14.79-13.07-14.79-25.07,0-13.2,5.52-22.08,20.56-22.08h57.91v10.88a10,10,0,0,1-10,10H434.53c-2.51,0-6,0-6,2.64,0,2.88,4,3.84,7.4,4.68l29.58,7.56c13.41,3.36,18.17,10.67,18.17,25.07s-5,23.16-21.31,23.16H402.56Z" style="fill:#333"/><path d="M333.75,535.12c2.23-6.24,5.27-10.2,16.22-10.2,6.7,0,13,.84,16.23,10.2l26.27,74.75H375.61A10,10,0,0,1,366.1,603l-3.35-10.36H337.19L333.85,603a10,10,0,0,1-9.51,6.92H307.47Zm8.92,38.27h14.61l-6.39-21.23c-.21-.84-.51-1.8-.92-1.8s-.71,1-.91,1.8Z" style="fill:#333"/><path d="M233.56,609.87V539.08c0-7.29,5.91-14.2,13.2-14.2h33.93c16.1,0,29.1,14,29.18,30.14.1,19.58-4.59,30.61-24,30.61H260.68v14.24a10,10,0,0,1-10,10Zm37.68-45.11c7.16,0,10.76-1.91,10.79-9a9,9,0,0,0-9.12-9h-7a5.27,5.27,0,0,0-5.28,5.28v12.72Z" style="fill:#333"/><g id="角丸2"><path d="M142.45,598.51a10,10,0,0,1,10-10h37.64c4.14,0,4.89-1.32,4.89-2.64,0-2.52-2.76-3.36-5.64-4.2l-34-9.12c-11.41-3-14.79-13.08-14.79-25.07,0-13.2,5.51-22.08,20.55-22.08h57.92v10.88a10,10,0,0,1-10,10H174.42c-2.51,0-6,0-6,2.64,0,2.87,4,3.83,7.4,4.67l29.58,7.56c13.41,3.36,18.18,10.68,18.18,25.08s-5,23.16-21.31,23.16h-59.8Z" style="fill:#b3b3b3"/><path d="M20.64,609.19a10,10,0,0,0,10-10V559.55c0-4.13,1.32-4.88,2.64-4.88,2.52,0,3.36,2.75,4.2,5.64l9.12,34c3,11.4,13.08,14.79,25.08,14.79,13.2,0,22.08-5.52,22.08-20.56V525.6H82.88a10,10,0,0,0-10,10v39.62c0,2.51,0,6-2.64,6-2.88,0-3.84-4-4.68-7.4L58,544.26c-3.36-13.41-10.68-18.17-25.08-18.17s-23.16,5-23.16,21.31v61.79Z" style="fill:#b3b3b3"/><path d="M103.88,609.39v-74a10,10,0,0,1,10-10H131v74a10,10,0,0,1-10,10Z" style="fill:#b3b3b3"/></g><circle cx="292.15" cy="232.63" r="232.63" style="fill:#333"/><path d="M22.13,375.86a28.77,28.77,0,0,0,40.69,0L265.14,173.54c8.41-8.42,12.63-7.26,15.31-4.57,5.13,5.12,1.23,12.44-2.93,20L227,276.64c-17.1,29.31-3.48,56.7,20.93,81.11,26.85,26.85,56.13,33.69,86.73,3.09L584,111.52,561.82,89.39a28.77,28.77,0,0,0-40.69,0l-201.95,202c-5.09,5.1-12.23,12.24-17.6,6.87-5.86-5.86.34-16,5.52-24.57l44.8-75.55c20.45-34.12,15.25-58.7-14-88s-57.31-36.91-90.46-3.76L0,353.73Z" style="fill:#b3b3b3"/></g></g></svg>