<svg xmlns="http://www.w3.org/2000/svg" viewBox="0 0 583.95 615.41"><g id="レイヤー_2" data-name="レイヤー 2"><g id="pass-logo-r"><path d="M492.93,604.05a10,10,0,0,1,10-10h37.64c4.13,0,4.89-1.32,4.89-2.64,0-2.52-2.76-3.36-5.65-4.2l-34-9.12c-11.4-3-14.79-13.08-14.79-25.07,0-13.2,5.52-22.08,20.56-22.08h57.91v10.88a10,10,0,0,1-10,10H524.9c-2.51,0-6,0-6,2.64,0,2.88,4,3.84,7.4,4.68l29.58,7.55c13.41,3.36,18.18,10.68,18.18,25.08s-5,23.16-21.31,23.16h-59.8Z" style="fill:#b3b3b3"/><path d="M402.41,604.41a10,10,0,0,1,10-10H450c4.14,0,4.89-1.32,4.89-2.64,0-2.52-2.75-3.36-5.64-4.2l-34-9.12c-11.4-3-14.79-13.07-14.79-25.07,0-13.2,5.52-22.08,20.56-22.08H479v10.88a10,10,0,0,1-10,10H434.38c-2.51,0-6,0-6,2.64,0,2.88,4,3.84,7.39,4.68l29.59,7.56c13.41,3.36,18.17,10.68,18.17,25.07s-5,23.16-21.31,23.16H402.41Z" style="fill:#b3b3b3"/><path d="M333.59,540.66c2.24-6.24,5.28-10.2,16.23-10.2,6.7,0,13,.84,16.23,10.2l26.27,74.75H375.46a10,10,0,0,1-9.51-6.92l-3.35-10.36H337l-3.34,10.36a10,10,0,0,1-9.52,6.92H307.32Zm8.93,38.27h14.61l-6.39-21.23c-.21-.84-.51-1.8-.92-1.8s-.71,1-.91,1.8Z" style="fill:#b3b3b3"/><path d="M233.41,615.41V544.62c0-7.29,5.91-14.2,13.2-14.2h33.93c16.1,0,29.1,14,29.18,30.14.1,19.58-4.59,30.61-24,30.61h-25.2v14.24a10,10,0,0,1-10,10Zm37.67-45.11c7.17,0,10.77-1.91,10.8-9a9,9,0,0,0-9.12-9h-7a5.28,5.28,0,0,0-5.28,5.28V570.3Z" style="fill:#b3b3b3"/><g id="角丸2"><path d="M142.6,603.51a10,10,0,0,1,10-10h37.64c4.14,0,4.89-1.32,4.89-2.64,0-2.52-2.76-3.36-5.64-4.2l-34-9.12c-11.41-3-14.79-13.08-14.79-25.07,0-13.2,5.51-22.08,20.55-22.08H219.2v10.88a10,10,0,0,1-10,10H174.57c-2.51,0-6,0-6,2.64,0,2.88,4,3.84,7.4,4.67l29.58,7.56c13.42,3.36,18.18,10.68,18.18,25.08s-5,23.16-21.31,23.16H142.6Z" style="fill:#b3b3b3"/><path d="M20.79,614.19a10,10,0,0,0,10-10V564.55c0-4.13,1.32-4.88,2.64-4.88,2.52,0,3.36,2.75,4.2,5.64l9.12,34c3,11.4,13.08,14.79,25.08,14.79,13.2,0,22.08-5.52,22.08-20.56V530.6H83a10,10,0,0,0-10,10v39.62c0,2.51,0,6-2.64,6-2.88,0-3.84-4-4.68-7.4l-7.56-29.58c-3.36-13.41-10.68-18.17-25.08-18.17s-23.16,5-23.16,21.31v61.79Z" style="fill:#b3b3b3"/><path d="M104,614.39v-74a10,10,0,0,1,10-10h17.12v74a10,10,0,0,1-10,10Z" style="fill:#b3b3b3"/></g><circle cx="292.15" cy="237.63" r="232.63" style="fill:#333;stroke:#b3b3b3;stroke-miterlimit:10;stroke-width:10px"/><path d="M22.13,380.86a28.77,28.77,0,0,0,40.69,0L265.14,178.54c8.41-8.42,12.63-7.26,15.31-4.57,5.13,5.12,1.23,12.44-2.93,20L227,281.64c-17.1,29.31-3.48,56.7,20.93,81.11,26.85,26.85,56.13,33.69,86.73,3.09L584,116.52,561.82,94.39a28.77,28.77,0,0,0-40.69,0l-201.95,202c-5.09,5.1-12.23,12.24-17.6,6.87-5.86-5.86.34-16,5.52-24.57l44.8-75.55c20.45-34.12,15.25-58.7-14-88s-57.31-36.91-90.46-3.76L0,358.73Z" style="fill:#b3b3b3"/></g></g></svg>