<svg xmlns="http://www.w3.org/2000/svg" width="1960.201" height="277.34" viewBox="0 0 1960.201 277.34">
  <g id="レイヤー_2" data-name="レイヤー 2">
    <g id="plan-banner-r">
      <g>
        <g>
          <circle cx="167.874" cy="138.67" r="133.67" fill="#e7bc00" stroke="#f5dc7b" stroke-miterlimit="10" stroke-width="10"/>
          <path d="M12.716,220.976a16.533,16.533,0,0,0,23.379,0L152.351,104.719c4.836-4.836,7.258-4.171,8.8-2.628,2.946,2.945.7,7.15-1.684,11.5L130.42,163.961c-9.827,16.84-2,32.579,12.025,46.6,15.429,15.429,32.256,19.361,49.838,1.778L335.546,69.081,322.829,56.364a16.532,16.532,0,0,0-23.378,0L183.409,172.407c-2.931,2.93-7.033,7.033-10.119,3.947-3.366-3.366.2-9.177,3.175-14.115l25.743-43.416c11.75-19.6,8.762-33.729-8.069-50.561s-32.932-21.21-51.98-2.162L0,208.259Z" fill="#f5dc7b"/>
        </g>
        <g>
          <g>
            <path d="M1759.526,256.253a27.444,27.444,0,0,0,27.445-27.445V120.025c0-11.354,3.624-13.417,7.248-13.417,6.915,0,9.22,7.568,11.525,15.48l25.03,93.233c8.233,31.306,35.9,40.6,68.83,40.6,36.227,0,60.6-15.138,60.6-56.421V26.831h-29.859A27.446,27.446,0,0,0,1902.9,54.276V163.029c0,6.88,0,16.513-7.244,16.513-7.9,0-10.539-11.009-12.844-20.3L1862.06,78.053c-9.222-36.811-29.31-49.885-68.83-49.885s-63.562,13.761-63.562,58.485v169.6Z" fill="#f5dc7b"/>
            <path d="M1540.169,51.08c6.124-17.126,14.477-27.995,44.542-27.995,18.374,0,35.633,2.308,44.541,27.995l72.1,205.173h-46.278a27.445,27.445,0,0,1-26.118-19.013l-9.173-28.41h-70.151l-9.173,28.41a27.445,27.445,0,0,1-26.118,19.013h-46.275Zm24.5,105.057h40.087l-17.538-58.292c-.557-2.3-1.391-4.94-2.5-4.94s-1.949,2.635-2.506,4.94Z" fill="#f5dc7b"/>
            <path d="M1273.981,254.935a36.226,36.226,0,0,1-36.226-36.226V24.4h74.427V183.14a14.492,14.492,0,0,0,14.492,14.492h86.5a27.445,27.445,0,0,1,27.445,27.445v29.858Z" fill="#f5dc7b"/>
            <path d="M1000.853,253.619V59.314a36.229,36.229,0,0,1,36.229-36.229h93.136a80.208,80.208,0,0,1,80.087,79.988c.28,53.748-12.608,84.02-65.862,84.02h-69.16v39.08a27.446,27.446,0,0,1-27.445,27.446ZM1104.264,129.79c19.668,0,29.549-5.221,29.64-24.756.063-13.674-11.361-24.643-25.035-24.643h-19.1a14.489,14.489,0,0,0-14.489,14.489v34.91Z" fill="#f5dc7b"/>
          </g>
          <g id="角丸2">
            <path d="M750.812,225.078a27.446,27.446,0,0,1,27.445-27.446h103.3c11.353,0,13.417-3.623,13.417-7.247,0-6.915-7.569-9.22-15.481-11.525l-93.233-25.03c-31.306-8.233-40.6-35.9-40.6-68.83,0-36.227,15.138-60.6,56.422-60.6H961.023V54.262a27.446,27.446,0,0,1-27.446,27.446H838.548c-6.881,0-16.513,0-16.513,7.244,0,7.9,11.009,10.539,20.3,12.844l81.192,20.747c36.81,9.223,49.884,29.311,49.884,68.831s-13.76,63.561-58.485,63.561H750.812Z" fill="#f5dc7b"/>
            <path d="M416.493,254.381a27.446,27.446,0,0,0,27.446-27.446V118.152c0-11.353,3.623-13.417,7.247-13.417,6.915,0,9.22,7.569,11.525,15.481l25.03,93.232c8.233,31.307,35.9,40.6,68.83,40.6,36.227,0,60.6-15.138,60.6-56.421V24.958H587.309A27.446,27.446,0,0,0,559.863,52.4V161.156c0,6.88,0,16.513-7.244,16.513-7.9,0-10.539-11.009-12.844-20.3L519.028,76.18C509.805,39.37,489.717,26.3,450.2,26.3s-63.562,13.761-63.562,58.486v169.6Z" fill="#f5dc7b"/>
            <path d="M644.938,254.935V51.849A27.445,27.445,0,0,1,672.383,24.4h46.984V227.489a27.445,27.445,0,0,1-27.445,27.446Z" fill="#f5dc7b"/>
          </g>
        </g>
      </g>
    </g>
  </g>
</svg>
