<svg xmlns="http://www.w3.org/2000/svg" viewBox="0 0 1934.28 277.34"><g id="レイヤー_2" data-name="レイヤー 2"><g id="pass-banner-r"><circle cx="167.87" cy="138.67" r="133.67" style="fill:#333;stroke:#b3b3b3;stroke-miterlimit:10;stroke-width:10px"/><path d="M12.72,221a16.53,16.53,0,0,0,23.37,0L152.35,104.72c4.84-4.84,7.26-4.17,8.8-2.63,2.95,3,.71,7.15-1.68,11.5L130.42,164c-9.83,16.84-2,32.58,12,46.61,15.43,15.43,32.26,19.36,49.84,1.77L335.55,69.08,322.83,56.36a16.54,16.54,0,0,0-23.38,0l-116,116.05c-2.93,2.93-7,7-10.12,3.94-3.37-3.36.2-9.17,3.17-14.11l25.75-43.42C214,99.22,211,85.09,194.14,68.26s-32.93-21.21-52-2.16L0,208.26Z" style="fill:#b3b3b3"/><path d="M1711.79,224.09a27.43,27.43,0,0,1,27.43-27.43h103.25c11.35,0,13.41-3.62,13.41-7.25,0-6.91-7.57-9.21-15.47-11.51l-93.19-25c-31.29-8.23-40.58-35.88-40.58-68.8,0-36.21,15.13-60.57,56.4-60.57H1921.9V53.36a27.43,27.43,0,0,1-27.43,27.43h-95c-6.88,0-16.51,0-16.51,7.24,0,7.9,11,10.53,20.29,12.84l81.15,20.74c36.79,9.21,49.86,29.29,49.86,68.79s-13.75,63.53-58.45,63.53h-164Z" style="fill:#b3b3b3"/><path d="M1463.47,225.08a27.43,27.43,0,0,1,27.43-27.43h103.24c11.35,0,13.41-3.62,13.41-7.25,0-6.91-7.56-9.21-15.47-11.51l-93.19-25c-31.29-8.23-40.57-35.88-40.57-68.8,0-36.21,15.13-60.57,56.39-60.57h158.87V54.35a27.43,27.43,0,0,1-27.43,27.43h-95c-6.88,0-16.5,0-16.5,7.24,0,7.9,11,10.53,20.28,12.84l81.16,20.73c36.79,9.22,49.86,29.3,49.86,68.8s-13.76,63.53-58.46,63.53h-164Z" style="fill:#b3b3b3"/><path d="M1274.69,50.18c6.12-17.12,14.47-28,44.52-28,18.37,0,35.62,2.31,44.52,28l72.07,205.07h-46.25a27.43,27.43,0,0,1-26.11-19l-9.17-28.4h-70.12l-9.17,28.4a27.42,27.42,0,0,1-26.1,19h-46.25Zm24.49,105h40.07l-17.53-58.26c-.56-2.31-1.39-4.94-2.51-4.94s-2,2.63-2.5,4.94Z" style="fill:#b3b3b3"/><path d="M999.85,255.25V61c0-20,16.21-38.95,36.21-38.95h93.09c44.17,0,79.82,38.52,80,82.69.28,53.72-12.6,84-65.83,84h-69.13v39.06a27.43,27.43,0,0,1-27.43,27.43Zm103.36-123.77c19.66,0,29.54-5.22,29.63-24.74.06-13.67-11.36-24.63-25-24.63h-19.08a14.48,14.48,0,0,0-14.49,14.48v34.89Z" style="fill:#b3b3b3"/><g id="角丸2"><path d="M749.93,224.09a27.43,27.43,0,0,1,27.43-27.43H880.61C892,196.66,894,193,894,189.41c0-6.91-7.57-9.21-15.48-11.51l-93.18-25c-31.3-8.23-40.58-35.88-40.58-68.8,0-36.21,15.13-60.57,56.39-60.57H960V53.36a27.43,27.43,0,0,1-27.43,27.43h-95c-6.87,0-16.5,0-16.5,7.24,0,7.9,11,10.53,20.29,12.84l81.15,20.74c36.79,9.21,49.86,29.29,49.86,68.79S958.67,253.93,914,253.93h-164Z" style="fill:#b3b3b3"/><path d="M415.77,253.38A27.43,27.43,0,0,0,443.2,226V117.22c0-11.35,3.62-13.42,7.24-13.42,6.92,0,9.22,7.57,11.52,15.48l25,93.19c8.23,31.29,35.88,40.57,68.8,40.57,36.21,0,60.57-15.13,60.57-56.39V24.07H586.5A27.43,27.43,0,0,0,559.07,51.5V160.2c0,6.88,0,16.5-7.24,16.5-7.9,0-10.53-11-12.84-20.28L518.25,75.26C509,38.47,489,25.4,449.46,25.4s-63.54,13.76-63.54,58.46V253.38Z" style="fill:#b3b3b3"/><path d="M644.1,253.93v-203a27.44,27.44,0,0,1,27.44-27.43h47v203a27.43,27.43,0,0,1-27.43,27.43Z" style="fill:#b3b3b3"/></g></g></g></svg>