<svg xmlns="http://www.w3.org/2000/svg" viewBox="0 0 1655.32 233.17"><g id="レイヤー_2" data-name="レイヤー 2"><g id="room-banner"><g id="角丸2"><path d="M365.11,201.19a27.52,27.52,0,0,1,27.52-27.52H496.19c11.38,0,13.45-3.63,13.45-7.26,0-6.94-7.59-9.25-15.52-11.56l-93.48-25.09c-31.38-8.25-40.7-36-40.7-69C359.94,24.43,375.12,0,416.51,0H575.86V29.94a27.51,27.51,0,0,1-27.51,27.51H453.07c-6.9,0-16.55,0-16.55,7.26,0,7.93,11,10.57,20.35,12.88l81.4,20.8c36.9,9.25,50,29.39,50,69s-13.8,63.72-58.64,63.72H365.11Z" style="fill:#f1c279"/><path d="M29.93,230.57a27.52,27.52,0,0,0,27.52-27.52V94c0-11.38,3.63-13.45,7.27-13.45,6.93,0,9.24,7.59,11.55,15.52l25.1,93.47c8.25,31.39,36,40.7,69,40.7,36.32,0,60.75-15.18,60.75-56.57V.56H201.19a27.52,27.52,0,0,0-27.52,27.51v109c0,6.9,0,16.56-7.26,16.56-7.93,0-10.57-11-12.88-20.35l-20.8-81.4c-9.24-36.91-29.38-50-69-50S0,15.69,0,60.53v170Z" style="fill:#f1c279"/><path d="M259,231.12V27.52A27.52,27.52,0,0,1,286.48,0h47.11V203.61a27.52,27.52,0,0,1-27.52,27.51Z" style="fill:#f1c279"/></g><path d="M615.45,36.32A36.32,36.32,0,0,1,651.77,0H782.19c52.83,0,66,29.05,66,78.58,0,33-5.28,82.22-51.5,82.22h-9.91v1.32l66,69H763L718.46,171c-7.59-10.23-15.84-18.16-15.84-31.37v-4.95a26.08,26.08,0,0,1,26.08-26.08h18.49A26.44,26.44,0,0,0,773.6,82c-.12-19.35-6.79-24.53-26.41-24.53H704.6A14.52,14.52,0,0,0,690.07,72V203.61a27.52,27.52,0,0,1-27.52,27.51h-47.1Z" style="fill:#e2844a"/><path d="M1098.41,115.56C1098.41,214.61,1080.8,231,985,231s-113.36-16.4-113.36-115.45S889.29.11,985,.11,1098.41,16.51,1098.41,115.56ZM985,176.32c39.63,0,50.52-17.83,50.52-60.76S1024.67,54.81,985,54.81s-50.51,17.83-50.51,60.75S945.42,176.32,985,176.32Z" style="fill:#e2844a"/><path d="M1556,202.83c-4.53,16.46-10.19,30.34-38.21,30.34s-33.69-13.88-38.22-30.34L1449,93.72c-1.14-4.2-2.27-8.08-3.68-8.08-2.55,0-2.55,5.17-2.55,7.43l1.59,110.17c.21,15-10.41,27.35-23.59,27.35h-40.56V41.74c0-39.7,38.5-39.7,48.69-39.7,17,0,40.76,2.58,51,37.44l32,109.76c.57,2.26,3.4,10.33,6,10.33s5.38-8.07,5.94-10.33l32-109.76C1565.86,4.94,1589.92,2,1606.63,2c45,0,48.69,25.5,48.69,39.7V230.59h-40.51c-13.2,0-23.83-12.36-23.59-27.41L1593,93.07c0-2.9-.29-7.43-2.55-7.43-1.13,0-2.26,1.94-4,8.08Z" style="fill:#e2844a"/><path d="M1352.64,117.6c0,99.06-17.61,115.45-113.36,115.45s-113.36-16.39-113.36-115.45S1143.53,2.15,1239.28,2.15,1352.64,18.55,1352.64,117.6Zm-113.36,60.76c39.62,0,50.52-17.83,50.52-60.76s-10.9-60.75-50.52-60.75-50.52,17.83-50.52,60.75S1199.66,178.36,1239.28,178.36Z" style="fill:#e2844a"/></g></g></svg>