<svg xmlns="http://www.w3.org/2000/svg" viewBox="0 0 1920 1080"><g id="レイヤー_2" data-name="レイヤー 2"><g id="reco-image"><rect width="1920" height="1080" style="fill:#ab535f"/><path d="M1059.5,518.4H1028a5.28,5.28,0,0,0-5.28,5.28v6.24h45.84V548.4H1022.7v7.92a5.28,5.28,0,0,0,5.28,5.28h32a10,10,0,0,1,10,10V582h-61.2a13.2,13.2,0,0,1-13.2-13.2V511.2a13.2,13.2,0,0,1,13.2-13.2h60.72v10.4A10,10,0,0,1,1059.5,518.4Z" style="fill:#fff"/><path d="M1114.9,582c-27.6,0-36.72-13.2-36.72-42s9.12-42,36.72-42h35.52v15.88a5,5,0,0,1-5,5h-17.3A22,22,0,0,0,1106,541.05c.19,17.07,5.15,20.07,22.79,20.07h17.8a5,5,0,0,1,5,5V582Z" style="fill:#fff"/><path d="M900.63,511.2a13.2,13.2,0,0,1,13.2-13.2h47.4c19.2,0,24,10.56,24,28.56,0,12-1.92,29.88-18.72,29.88h-3.6v.48l24,25.08H954.27l-16.2-21.84c-2.76-3.72-5.76-6.6-5.76-11.4V547a9.47,9.47,0,0,1,9.48-9.48h6.72a9.61,9.61,0,0,0,9.6-9.68c-.05-7-2.47-8.92-9.6-8.92H933a5.27,5.27,0,0,0-5.28,5.28V572a10,10,0,0,1-10,10H900.63Z" style="fill:#fff"/><path d="M1244,540c0,36-6.4,42-41.2,42s-41.2-6-41.2-42,6.4-42,41.2-42S1244,504,1244,540Zm-41.2,22.08c14.4,0,18.36-6.48,18.36-22.08s-4-22.08-18.36-22.08-18.36,6.48-18.36,22.08S1188.42,562.08,1202.82,562.08Z" style="fill:#fff"/><g id="角丸2"><path d="M808.67,571.12a10,10,0,0,1,10-10h37.64c4.14,0,4.89-1.32,4.89-2.64,0-2.52-2.76-3.36-5.64-4.2l-34-9.12c-11.41-3-14.79-13.08-14.79-25.08,0-13.2,5.51-22.08,20.55-22.08h57.92v10.88a10,10,0,0,1-10,10H840.64c-2.51,0-6,0-6,2.64,0,2.88,4,3.84,7.4,4.68l29.58,7.56c13.41,3.36,18.18,10.68,18.18,25.08s-5,23.16-21.31,23.16h-59.8Z" style="fill:#fff"/><path d="M686.86,581.8a10,10,0,0,0,10-10V532.16c0-4.14,1.32-4.89,2.64-4.89,2.52,0,3.36,2.76,4.2,5.64l9.12,34c3,11.41,13.08,14.79,25.08,14.79,13.2,0,22.08-5.51,22.08-20.55V498.2H749.1a10,10,0,0,0-10,10v39.63c0,2.51,0,6-2.64,6-2.88,0-3.84-4-4.68-7.4l-7.56-29.58c-3.36-13.42-10.68-18.18-25.08-18.18S676,503.7,676,520v61.8Z" style="fill:#fff"/><path d="M770.1,582V508a10,10,0,0,1,10-10h17.12v74a10,10,0,0,1-10,10Z" style="fill:#fff"/></g></g></g></svg>