<svg xmlns="http://www.w3.org/2000/svg" viewBox="0 0 1920 1080"><g id="レイヤー_2" data-name="レイヤー 2"><g id="room-image"><rect width="1920" height="1080" style="fill:#e2844a"/><g id="角丸2"><path d="M791.9,570.75a10,10,0,0,1,10-10h37.63c4.14,0,4.89-1.32,4.89-2.64,0-2.52-2.76-3.36-5.64-4.2l-34-9.12c-11.4-3-14.79-13.08-14.79-25.08,0-13.2,5.52-22.08,20.56-22.08h57.91v10.88a10,10,0,0,1-10,10H823.87c-2.51,0-6,0-6,2.64,0,2.88,4,3.84,7.39,4.68l29.59,7.56c13.41,3.36,18.17,10.68,18.17,25.08s-5,23.16-21.31,23.16H791.9Z" style="fill:#fff"/><path d="M670.09,581.42a10,10,0,0,0,10-10V531.79c0-4.14,1.32-4.89,2.64-4.89,2.52,0,3.36,2.76,4.2,5.64l9.12,34c3,11.41,13.07,14.79,25.07,14.79,13.2,0,22.08-5.51,22.08-20.56V497.83H732.32a10,10,0,0,0-10,10v39.63c0,2.5,0,6-2.64,6-2.88,0-3.84-4-4.68-7.39l-7.55-29.58c-3.37-13.42-10.68-18.18-25.08-18.18s-23.16,5-23.16,21.31v61.79Z" style="fill:#fff"/><path d="M753.32,581.63v-74a10,10,0,0,1,10-10h17.12v74a10,10,0,0,1-10,10Z" style="fill:#fff"/></g><path d="M882.88,510.83a13.2,13.2,0,0,1,13.2-13.2h47.4c19.19,0,24,10.56,24,28.56,0,12-1.92,29.88-18.72,29.88h-3.6v.48l24,25.08H936.52l-16.2-21.84c-2.76-3.72-5.76-6.6-5.76-11.4v-1.8a9.47,9.47,0,0,1,9.47-9.48h6.73a9.6,9.6,0,0,0,9.59-9.68c0-7-2.46-8.92-9.59-8.92H915.28a5.27,5.27,0,0,0-5.28,5.28v47.84a10,10,0,0,1-10,10H882.88Z" style="fill:#fff"/><path d="M1058.4,539.63c0,36-6.4,42-41.2,42s-41.2-6-41.2-42,6.4-42,41.2-42S1058.4,503.63,1058.4,539.63Zm-41.2,22.08c14.4,0,18.36-6.48,18.36-22.08s-4-22.08-18.36-22.08-18.36,6.48-18.36,22.08S1002.8,561.71,1017.2,561.71Z" style="fill:#fff"/><path d="M1224.68,571.34c-1.64,6-3.7,11-13.89,11s-12.24-5-13.89-11l-11.11-39.65c-.41-1.53-.82-2.93-1.33-2.93-.93,0-.93,1.87-.93,2.69l.58,40c.08,5.47-3.79,9.94-8.58,9.94h-14.74V512.8c0-14.43,14-14.43,17.7-14.43,6.17,0,14.81.94,18.52,13.61l11.62,39.89c.21.82,1.24,3.75,2.16,3.75s2-2.93,2.16-3.75L1224.58,512c3.7-12.55,12.45-13.61,18.52-13.61,16.36,0,17.69,9.27,17.69,14.43v68.63h-14.72c-4.8,0-8.66-4.49-8.57-10l.66-40c0-1.05-.1-2.69-.93-2.69-.41,0-.82.7-1.44,2.93Z" style="fill:#fff"/><path d="M1150.79,540.37c0,36-6.4,42-41.19,42s-41.2-6-41.2-42,6.4-42,41.2-42S1150.79,504.37,1150.79,540.37Zm-41.19,22.08c14.39,0,18.35-6.48,18.35-22.08s-4-22.08-18.35-22.08-18.36,6.48-18.36,22.08S1095.2,562.45,1109.6,562.45Z" style="fill:#fff"/></g></g></svg>