<svg xmlns="http://www.w3.org/2000/svg" viewBox="0 0 583.95 609.2"><g id="レイヤー_2" data-name="レイヤー 2"><g id="reco-logo"><circle cx="292.15" cy="232.63" r="232.63" style="fill:#ab535f"/><path d="M22.13,375.86a28.77,28.77,0,0,0,40.69,0L265.14,173.54c8.41-8.42,12.63-7.26,15.31-4.57,5.13,5.12,1.23,12.44-2.93,20L227,276.64c-17.1,29.31-3.48,56.7,20.93,81.11,26.85,26.85,56.13,33.69,86.73,3.09L584,111.52,561.82,89.39a28.77,28.77,0,0,0-40.69,0l-201.95,202c-5.09,5.1-12.23,12.24-17.6,6.87-5.86-5.86.34-16,5.52-24.57l44.8-75.55c20.45-34.12,15.25-58.7-14-88s-57.31-36.91-90.46-3.76L0,353.73Z" style="fill:#ffb2ac"/><path d="M391.48,545.61H360a5.27,5.27,0,0,0-5.28,5.28v6.24h45.84v18.48H354.68v7.92A5.27,5.27,0,0,0,360,588.8h32a10,10,0,0,1,10,10v10.4h-61.2A13.2,13.2,0,0,1,327.56,596v-57.6a13.2,13.2,0,0,1,13.2-13.2h60.72v10.4A10,10,0,0,1,391.48,545.61Z" style="fill:#ab535f"/><path d="M446.88,609.2c-27.6,0-36.72-13.19-36.72-42s9.12-42,36.72-42H482.4v15.88a5,5,0,0,1-5,5H460.1A22,22,0,0,0,438,568.26c.19,17.07,5.15,20.07,22.8,20.07h17.8a5,5,0,0,1,5,5V609.2Z" style="fill:#ab535f"/><path d="M232.6,538.41a13.2,13.2,0,0,1,13.2-13.2h47.4c19.2,0,24,10.56,24,28.56,0,12-1.92,29.88-18.72,29.88h-3.6v.47l24,25.08H286.24L270,587.36c-2.76-3.71-5.76-6.6-5.76-11.39v-1.81a9.48,9.48,0,0,1,9.48-9.47h6.72a9.62,9.62,0,0,0,9.6-9.69c0-7-2.47-8.91-9.6-8.91H265a5.28,5.28,0,0,0-5.28,5.28V599.2a10,10,0,0,1-10,10H232.6Z" style="fill:#ab535f"/><path d="M576,567.21c0,36-6.4,41.95-41.2,41.95s-41.19-6-41.19-41.95,6.4-42,41.19-42S576,531.21,576,567.21Zm-41.2,22.08c14.4,0,18.36-6.48,18.36-22.08s-4-22.08-18.36-22.08-18.35,6.48-18.35,22.08S520.4,589.29,534.79,589.29Z" style="fill:#ab535f"/><g id="角丸2"><path d="M140.65,598.33a10,10,0,0,1,10-10h37.63c4.14,0,4.89-1.33,4.89-2.65,0-2.51-2.76-3.35-5.64-4.19l-34-9.12c-11.41-3-14.79-13.08-14.79-25.08,0-13.2,5.52-22.08,20.56-22.08h57.91v10.88a10,10,0,0,1-10,10H172.61c-2.5,0-6,0-6,2.64,0,2.88,4,3.84,7.39,4.68L203.58,561c13.41,3.36,18.17,10.68,18.17,25.07s-5,23.16-21.31,23.16H140.65Z" style="fill:#ffb2ac"/><path d="M18.83,609a10,10,0,0,0,10-10V559.37c0-4.14,1.33-4.89,2.65-4.89,2.52,0,3.35,2.75,4.19,5.64l9.12,34c3,11.4,13.08,14.79,25.08,14.79,13.2,0,22.08-5.52,22.08-20.56V525.41H81.07a10,10,0,0,0-10,10V575c0,2.51,0,6-2.64,6-2.88,0-3.84-4-4.68-7.39l-7.56-29.59c-3.36-13.41-10.68-18.17-25.07-18.17S8,530.91,8,547.21V609Z" style="fill:#ffb2ac"/><path d="M102.07,609.2v-74a10,10,0,0,1,10-10h17.12v74a10,10,0,0,1-10,10Z" style="fill:#ffb2ac"/></g></g></g></svg>