<svg xmlns="http://www.w3.org/2000/svg" viewBox="0 0 1576.83 233.17"><g id="レイヤー_2" data-name="レイヤー 2"><g id="reco-banner"><path d="M1064.62,56.63H977.13a14.65,14.65,0,0,0-14.65,14.65V88.6h127.24v51.3H962.48v22a14.65,14.65,0,0,0,14.65,14.65H1066a27.76,27.76,0,0,1,27.76,27.76v28.87H923.83a36.65,36.65,0,0,1-36.64-36.64V36.64A36.65,36.65,0,0,1,923.83,0h168.55V28.87A27.76,27.76,0,0,1,1064.62,56.63Z" style="fill:#ab535f"/><path d="M1218.41,233.17c-76.61,0-101.93-36.64-101.93-116.59S1141.8,0,1218.41,0H1317V44.08A13.87,13.87,0,0,1,1303.13,58h-48c-34,0-61.72,27.59-61.34,61.54.53,47.39,14.3,55.71,63.27,55.71h49.41a13.87,13.87,0,0,1,13.88,13.88v44.08Z" style="fill:#ab535f"/><path d="M623.61,36.64A36.63,36.63,0,0,1,660.25,0H791.82c53.3,0,66.62,29.31,66.62,79.28,0,33.3-5.33,82.94-52,82.94h-10v1.33l66.62,69.62H772.5l-45-60.63c-7.66-10.32-16-18.32-16-31.64v-5a26.31,26.31,0,0,1,26.31-26.31h18.65a26.68,26.68,0,0,0,26.65-26.88C783,63.19,776.31,58,756.51,58h-43a14.65,14.65,0,0,0-14.65,14.66V205.41a27.76,27.76,0,0,1-27.76,27.76H623.61Z" style="fill:#ab535f"/><path d="M1576.83,116.58c0,99.93-17.77,116.48-114.37,116.48S1348.1,216.51,1348.1,116.58,1365.87.11,1462.46.11,1576.83,16.65,1576.83,116.58Zm-114.37,61.29c40,0,51-18,51-61.29s-11-61.29-51-61.29-51,18-51,61.29S1422.49,177.87,1462.46,177.87Z" style="fill:#ab535f"/><g id="角丸2"><path d="M368.34,203a27.76,27.76,0,0,1,27.76-27.76H500.58c11.48,0,13.57-3.67,13.57-7.33,0-7-7.66-9.33-15.66-11.66l-94.3-25.31c-31.67-8.33-41.06-36.31-41.06-69.62C363.13,24.65,378.44,0,420.2,0H581V30.2A27.76,27.76,0,0,1,553.2,58H457.08c-7,0-16.7,0-16.7,7.33,0,8,11.13,10.66,20.53,13l82.12,21c37.23,9.33,50.45,29.65,50.45,69.62s-13.92,64.29-59.15,64.29h-166Z" style="fill:#ffb2ac"/><path d="M30.2,232.61A27.76,27.76,0,0,0,58,204.85v-110c0-11.48,3.66-13.57,7.33-13.57,7,0,9.32,7.66,11.66,15.66l25.31,94.3c8.33,31.66,36.31,41.06,69.62,41.06,36.64,0,61.29-15.31,61.29-57.07V.56H203a27.76,27.76,0,0,0-27.76,27.76v110c0,7,0,16.7-7.33,16.7-8,0-10.66-11.14-13-20.53l-21-82.12C124.58,15.14,104.26,1.91,64.29,1.91S0,15.83,0,61.07V232.61Z" style="fill:#ffb2ac"/><path d="M261.26,233.17V27.76A27.76,27.76,0,0,1,289,0h47.52V205.41a27.76,27.76,0,0,1-27.76,27.76Z" style="fill:#ffb2ac"/></g></g></g></svg>