<svg xmlns="http://www.w3.org/2000/svg" viewBox="0 0 1961.75 277.34"><g id="レイヤー_2" data-name="レイヤー 2"><g id="reco-banner-r"><circle cx="167.87" cy="138.67" r="133.67" style="fill:#ab535f;stroke:#ffb2ac;stroke-miterlimit:10;stroke-width:10px"/><path d="M12.72,221a16.53,16.53,0,0,0,23.37,0L152.35,104.72c4.84-4.84,7.26-4.17,8.8-2.63,2.95,3,.71,7.15-1.68,11.5L130.42,164c-9.83,16.84-2,32.58,12,46.61,15.43,15.43,32.26,19.36,49.84,1.77L335.55,69.08,322.83,56.36a16.54,16.54,0,0,0-23.38,0l-116,116.05c-2.93,2.93-7,7-10.12,3.94-3.37-3.36.2-9.17,3.17-14.11l25.75-43.42C214,99.22,211,85.09,194.14,68.26s-32.93-21.21-52-2.16L0,208.26Z" style="fill:#ffb2ac"/><path d="M1449.55,78.71h-87.5a14.65,14.65,0,0,0-14.65,14.66v17.32h127.24V162H1347.4v22a14.65,14.65,0,0,0,14.65,14.66h88.83a27.76,27.76,0,0,1,27.76,27.76v28.86H1308.76a36.63,36.63,0,0,1-36.64-36.64V58.73a36.63,36.63,0,0,1,36.64-36.64h168.55V51A27.76,27.76,0,0,1,1449.55,78.71Z" style="fill:#ffb2ac"/><path d="M1603.34,255.25c-76.61,0-101.93-36.64-101.93-116.58s25.32-116.58,101.93-116.58h98.59V66.17a13.88,13.88,0,0,1-13.88,13.88h-48c-34,0-61.71,27.59-61.34,61.54.53,47.38,14.3,55.71,63.28,55.71h49.41a13.88,13.88,0,0,1,13.88,13.88v44.07Z" style="fill:#ffb2ac"/><path d="M1008.53,58.73a36.64,36.64,0,0,1,36.64-36.64h131.58c53.29,0,66.62,29.31,66.62,79.27,0,33.31-5.33,82.94-52,82.94h-10v1.34L1248,255.25h-90.6l-45-60.62c-7.66-10.33-16-18.32-16-31.64v-5a26.31,26.31,0,0,1,26.31-26.31h18.66a26.68,26.68,0,0,0,26.64-26.88C1168,85.27,1161.23,80,1141.44,80h-43a14.66,14.66,0,0,0-14.66,14.66V227.49a27.76,27.76,0,0,1-27.76,27.76h-47.52Z" style="fill:#ffb2ac"/><path d="M1961.75,138.67c0,99.93-17.76,116.47-114.36,116.47S1733,238.6,1733,138.67,1750.79,22.2,1847.39,22.2,1961.75,38.74,1961.75,138.67ZM1847.39,200c40,0,51-18,51-61.29s-11-61.29-51-61.29-51,18-51,61.29S1807.42,200,1847.39,200Z" style="fill:#ffb2ac"/><g id="角丸2"><path d="M753.26,225.06A27.76,27.76,0,0,1,781,197.3H885.5c11.48,0,13.57-3.67,13.57-7.33,0-7-7.66-9.33-15.66-11.66L789.11,153c-31.66-8.32-41.06-36.3-41.06-69.61,0-36.65,15.31-61.29,57.07-61.29H965.88v30.2a27.76,27.76,0,0,1-27.76,27.76H842c-7,0-16.7,0-16.7,7.32,0,8,11.14,10.66,20.53,13l82.12,21c37.23,9.33,50.46,29.64,50.46,69.62s-13.92,64.28-59.16,64.28h-166Z" style="fill:#ffb2ac"/><path d="M415.12,254.69a27.76,27.76,0,0,0,27.76-27.76v-110c0-11.49,3.67-13.57,7.33-13.57,7,0,9.33,7.65,11.66,15.65l25.32,94.3c8.32,31.67,36.3,41.06,69.61,41.06,36.64,0,61.29-15.31,61.29-57.06V22.65h-30.2a27.76,27.76,0,0,0-27.76,27.76v110c0,7,0,16.7-7.33,16.7-8,0-10.65-11.13-13-20.53l-21-82.12C509.5,37.22,489.18,24,449.21,24s-64.29,13.92-64.29,59.15V254.69Z" style="fill:#ffb2ac"/><path d="M646.18,255.25V49.85a27.76,27.76,0,0,1,27.76-27.76h47.52v205.4a27.76,27.76,0,0,1-27.76,27.76Z" style="fill:#ffb2ac"/></g></g></g></svg>