<svg xmlns="http://www.w3.org/2000/svg" viewBox="0 0 1920 1080"><g id="レイヤー_2" data-name="レイヤー 2"><g id="wiki-image"><rect width="1920" height="1080" style="fill:#497458"/><g id="角丸2"><path d="M851.45,571.12a10,10,0,0,1,10-10h37.63c4.14,0,4.89-1.32,4.89-2.64,0-2.52-2.76-3.36-5.64-4.2l-34-9.12c-11.41-3-14.79-13.08-14.79-25.08,0-13.2,5.52-22.08,20.56-22.08H928v10.88a10,10,0,0,1-10,10H883.41c-2.5,0-6,0-6,2.64,0,2.88,4,3.84,7.39,4.68l29.59,7.56c13.41,3.36,18.17,10.68,18.17,25.08s-5,23.16-21.31,23.16H851.45Z" style="fill:#fff"/><path d="M729.63,581.79a10,10,0,0,0,10-10V532.16c0-4.14,1.32-4.89,2.65-4.89,2.51,0,3.35,2.76,4.19,5.64l9.12,34c3,11.41,13.08,14.79,25.08,14.79,13.2,0,22.08-5.51,22.08-20.56V498.2H791.87a10,10,0,0,0-10,10v39.63c0,2.5,0,6-2.64,6-2.88,0-3.84-4-4.68-7.39L767,516.87c-3.36-13.42-10.68-18.18-25.08-18.18s-23.15,5-23.15,21.31v61.79Z" style="fill:#fff"/><path d="M812.87,582V508a10,10,0,0,1,10-10H840v74a10,10,0,0,1-10,10Z" style="fill:#fff"/></g><path d="M986,506.91c2.09-8.33,8.84-8.91,12.82-8.91s10.73.58,12.81,8.91l10.43,42c.1.59.7,2,1.09,2s.8-.24,1.3-2.46l9.72-41.78a10,10,0,0,1,9.74-7.73h14.91l-17,66.05c-3.58,14-8,17-17.09,17-10.52,0-13.9-5.4-16.09-14.2l-8.84-35.66c-.3-.59-.5-2.11-1-2.11s-.7,1.52-1,2.11L989,567.8c-2.18,8.8-5.56,14.2-16.09,14.2-8.84,0-13.51-3.17-17.09-17l-17-66.05h14.91a10,10,0,0,1,9.74,7.73l9.72,41.78c.5,2.22,1,2.46,1.29,2.46s1-1.41,1.09-2Z" style="fill:#fff"/><path d="M1166.91,581.83A10,10,0,0,1,1159,578l-22.43-28.68a16.2,16.2,0,0,1-3.72-10.55,16,16,0,0,1,2.64-9.24L1155.08,502a10,10,0,0,1,8.15-4.2h27l-29.16,34.67a9.46,9.46,0,0,0-2.52,6c0,1.8.6,3.37,3.48,6.6l32.64,36.72Z" style="fill:#fff"/><path d="M1068.8,582V508a10,10,0,0,1,10-10h17.12v74a10,10,0,0,1-10,10Z" style="fill:#fff"/><path d="M1205.11,581.83v-74a10,10,0,0,1,10-10h17.12v74a10,10,0,0,1-10,10Z" style="fill:#fff"/><path d="M1105.92,581.83v-74a10,10,0,0,1,10-10H1133v74a10,10,0,0,1-10,10Z" style="fill:#fff"/></g></g></svg>