<svg xmlns="http://www.w3.org/2000/svg" viewBox="0 0 1422.57 233.17"><g id="レイヤー_2" data-name="レイヤー 2"><g id="wiki-banner"><g id="角丸2"><path d="M367.62,203a27.7,27.7,0,0,1,27.7-27.7H499.59c11.46,0,13.54-3.66,13.54-7.32,0-7-7.64-9.3-15.62-11.63L403.39,131.1c-31.6-8.31-41-36.23-41-69.48,0-36.57,15.29-61.17,57-61.17H579.81V30.6a27.7,27.7,0,0,1-27.7,27.7H456.18c-6.95,0-16.67,0-16.67,7.31,0,8,11.11,10.64,20.49,13l82,20.94c37.16,9.31,50.35,29.59,50.35,69.48s-13.89,64.16-59,64.16H367.62Z" style="fill:#b2c9a5"/><path d="M30.14,232.6a27.7,27.7,0,0,0,27.7-27.7V95.09c0-11.46,3.66-13.55,7.32-13.55,7,0,9.31,7.65,11.63,15.63l25.27,94.12c8.31,31.6,36.24,41,69.48,41,36.57,0,61.17-15.28,61.17-56.95V1H202.57a27.71,27.71,0,0,0-27.71,27.71V138.5c0,6.94,0,16.67-7.31,16.67-8,0-10.64-11.12-13-20.49l-21-82C124.33,15.56,104.05,2.36,64.16,2.36S0,16.25,0,61.4V232.6Z" style="fill:#b2c9a5"/><path d="M260.74,233.16v-205A27.71,27.71,0,0,1,288.45.46h47.42v205a27.7,27.7,0,0,1-27.7,27.7Z" style="fill:#b2c9a5"/></g><path d="M740.34,25.15C746.12,2.07,764.84.45,775.85.45s29.72,1.62,35.5,24.7l28.9,116.36c.27,1.63,1.92,5.53,3,5.53.83,0,2.2-.65,3.58-6.83L873.79,24.47a27.7,27.7,0,0,1,27-21.42h41.3L895,186c-9.91,38.68-22.29,47.13-47.34,47.13-29.17,0-38.52-14.95-44.58-39.33L778.6,95c-.83-1.62-1.38-5.85-2.75-5.85s-1.93,4.23-2.76,5.85L748.6,193.84c-6.05,24.38-15.41,39.33-44.58,39.33-24.5,0-37.43-8.78-47.34-47.13l-47.06-183h41.3a27.7,27.7,0,0,1,27,21.42l26.94,115.74c1.38,6.18,2.75,6.83,3.58,6.83,1.1,0,2.75-3.9,3-5.53Z" style="fill:#497458"/><path d="M1241.59,232.71a27.71,27.71,0,0,1-21.82-10.63l-62.16-79.46a45,45,0,0,1-10.31-29.26c0-9,2.33-19,7.32-25.59l54.21-76.14A27.71,27.71,0,0,1,1231.4,0h74.81l-80.78,96.08c-3.66,4-7,10.3-7,16.62,0,5,1.66,9.31,9.64,18.28l90.42,101.73Z" style="fill:#497458"/><path d="M969.78,233.16v-205A27.7,27.7,0,0,1,997.48.46h47.43v205a27.7,27.7,0,0,1-27.7,27.7Z" style="fill:#497458"/><path d="M1347.43,232.71v-205A27.71,27.71,0,0,1,1375.14,0h47.43V205a27.71,27.71,0,0,1-27.71,27.71Z" style="fill:#497458"/><path d="M1072.62,232.71v-205A27.71,27.71,0,0,1,1100.32,0h47.43V205A27.71,27.71,0,0,1,1120,232.71Z" style="fill:#497458"/></g></g></svg>