<svg xmlns="http://www.w3.org/2000/svg" viewBox="0 0 583.95 614.29"><g id="レイヤー_2" data-name="レイヤー 2"><g id="wiki-logo-r"><circle cx="292.15" cy="237.63" r="232.63" style="fill:#497458;stroke:#b2c9a5;stroke-miterlimit:10;stroke-width:10px"/><path d="M22.13,380.86a28.77,28.77,0,0,0,40.69,0L265.14,178.54c8.41-8.42,12.63-7.26,15.31-4.57,5.13,5.12,1.23,12.44-2.93,20L227,281.64c-17.1,29.31-3.48,56.7,20.93,81.11,26.85,26.85,56.13,33.69,86.73,3.09L584,116.52,561.82,94.39a28.77,28.77,0,0,0-40.69,0l-201.95,202c-5.09,5.1-12.23,12.24-17.6,6.87-5.86-5.86.34-16,5.52-24.57l44.8-75.55c20.45-34.12,15.25-58.7-14-88s-57.31-36.91-90.46-3.76L0,358.73Z" style="fill:#b2c9a5"/><g id="角丸2"><path d="M167.93,603.41a10,10,0,0,1,10-10h37.63c4.14,0,4.89-1.32,4.89-2.64,0-2.52-2.76-3.36-5.64-4.2l-34-9.12c-11.41-3-14.79-13.08-14.79-25.08,0-13.2,5.52-22.08,20.56-22.08h57.91v10.88a10,10,0,0,1-10,10H199.89c-2.5,0-6,0-6,2.64,0,2.88,4,3.84,7.39,4.68l29.59,7.56c13.41,3.36,18.17,10.68,18.17,25.08s-5,23.16-21.31,23.16H167.93Z" style="fill:#b2c9a5"/><path d="M46.12,614.08a10,10,0,0,0,10-10V564.45c0-4.14,1.32-4.89,2.64-4.89,2.52,0,3.36,2.76,4.19,5.64l9.12,34c3,11.41,13.08,14.79,25.08,14.79,13.2,0,22.08-5.51,22.08-20.56V530.49H108.35a10,10,0,0,0-10,10v39.63c0,2.5,0,6-2.64,6-2.88,0-3.84-4-4.68-7.39l-7.56-29.59C80.11,535.74,72.79,531,58.4,531s-23.16,5-23.16,21.31v61.79Z" style="fill:#b2c9a5"/><path d="M129.35,614.29v-74a10,10,0,0,1,10-10h17.12v74a10,10,0,0,1-10,10Z" style="fill:#b2c9a5"/></g><path d="M302.46,539.2c2.09-8.33,8.84-8.91,12.82-8.91s10.73.58,12.81,8.91l10.43,42c.1.59.7,2,1.1,2s.79-.24,1.29-2.47L350.63,539a10,10,0,0,1,9.74-7.74h14.91l-17,66.06c-3.58,14-8.05,17-17.09,17-10.52,0-13.9-5.4-16.09-14.2l-8.84-35.66c-.3-.59-.5-2.12-1-2.12s-.7,1.53-1,2.12l-8.84,35.66c-2.18,8.8-5.56,14.2-16.09,14.2-8.84,0-13.51-3.17-17.08-17l-17-66.06h14.91a10,10,0,0,1,9.74,7.74l9.72,41.77c.5,2.23,1,2.47,1.29,2.47s1-1.41,1.09-2Z" style="fill:#b2c9a5"/><path d="M385.28,614.29v-74a10,10,0,0,1,10-10H412.4v74a10,10,0,0,1-10,10Z" style="fill:#b2c9a5"/><path d="M521.59,614.12v-74a10,10,0,0,1,10-10h17.12v74a10,10,0,0,1-10,10Z" style="fill:#b2c9a5"/><path d="M478.51,577.4c-2.88-3.24-3.48-4.8-3.48-6.6a9.43,9.43,0,0,1,2.52-6l29.16-34.68h-27a10,10,0,0,0-8.15,4.2L452,561.8l0,.06a1.34,1.34,0,0,1-2.44-.76v-31H432.4a10,10,0,0,0-10,10v74h17.12a10,10,0,0,0,10-10V582.71a2,2,0,0,1,3.5-1.18l.06.07,22.43,28.68a10,10,0,0,0,7.88,3.84h27.76Z" style="fill:#b2c9a5"/></g></g></svg>