<svg xmlns="http://www.w3.org/2000/svg" viewBox="0 0 1808.56 267.34"><g id="レイヤー_2" data-name="レイヤー 2"><g id="wiki-banner"><circle cx="167.87" cy="133.67" r="133.67" style="fill:#497458"/><path d="M12.72,216a16.53,16.53,0,0,0,23.37,0L152.35,99.72c4.84-4.84,7.26-4.17,8.8-2.63,2.95,3,.71,7.15-1.68,11.5L130.42,159c-9.83,16.84-2,32.58,12,46.61,15.43,15.43,32.26,19.36,49.84,1.77L335.55,64.08,322.83,51.36a16.54,16.54,0,0,0-23.38,0l-116,116.05c-2.93,2.93-7,7-10.12,3.94-3.37-3.36.2-9.17,3.17-14.11l25.75-43.42C214,94.22,211,80.09,194.14,63.26s-32.93-21.21-52-2.16L0,203.26Z" style="fill:#b2c9a5"/><g id="角丸2"><path d="M753.61,219.85a27.7,27.7,0,0,1,27.7-27.7H885.58c11.46,0,13.55-3.66,13.55-7.32,0-7-7.64-9.31-15.63-11.63l-94.11-25.27c-31.61-8.31-41-36.24-41-69.48,0-36.57,15.28-61.17,57-61.17H965.8V47.42a27.71,27.71,0,0,1-27.7,27.71H842.17c-6.94,0-16.67,0-16.67,7.31,0,8,11.12,10.64,20.49,13l82,20.95c37.16,9.31,50.36,29.59,50.36,69.48S964.42,250,919.27,250H753.61Z" style="fill:#b2c9a5"/><path d="M416.13,249.43a27.71,27.71,0,0,0,27.71-27.7V111.92c0-11.47,3.65-13.55,7.31-13.55,7,0,9.31,7.64,11.64,15.63l25.26,94.11c8.31,31.6,36.24,41,69.48,41,36.57,0,61.17-15.28,61.17-57V17.84H588.56a27.71,27.71,0,0,0-27.7,27.71V155.33c0,6.94,0,16.66-7.32,16.66-8,0-10.63-11.11-13-20.48l-21-82c-9.3-37.16-29.58-50.36-69.48-50.36S386,33.08,386,78.23v171.2Z" style="fill:#b2c9a5"/><path d="M646.73,250V45a27.71,27.71,0,0,1,27.71-27.71h47.43v205A27.71,27.71,0,0,1,694.16,250Z" style="fill:#b2c9a5"/></g><path d="M1126.34,42c5.77-23.08,24.49-24.7,35.5-24.7s29.72,1.62,35.5,24.7l28.9,116.36c.27,1.62,1.92,5.52,3,5.52.83,0,2.21-.65,3.58-6.82L1259.78,41.3a27.7,27.7,0,0,1,27-21.43h41.31l-47.07,183c-9.9,38.67-22.29,47.13-47.33,47.13-29.17,0-38.53-15-44.59-39.33l-24.49-98.81c-.83-1.63-1.38-5.85-2.75-5.85s-1.93,4.22-2.75,5.85l-24.5,98.81C1128.54,235,1119.18,250,1090,250c-24.49,0-37.43-8.78-47.34-47.13l-47.06-183h41.3a27.71,27.71,0,0,1,27,21.43L1090.83,157c1.38,6.17,2.76,6.82,3.58,6.82,1.1,0,2.75-3.9,3-5.52Z" style="fill:#497458"/><path d="M1627.58,249.54a27.69,27.69,0,0,1-21.82-10.64l-62.16-79.45a45,45,0,0,1-10.3-29.26c0-9,2.32-19,7.31-25.6l54.21-76.13a27.71,27.71,0,0,1,22.57-11.63h74.81l-80.78,96.07c-3.66,4-7,10.31-7,16.63,0,5,1.66,9.31,9.64,18.28l90.42,101.73Z" style="fill:#497458"/><path d="M1355.77,250V45a27.71,27.71,0,0,1,27.71-27.71h47.42v205a27.7,27.7,0,0,1-27.7,27.7Z" style="fill:#497458"/><path d="M1733.43,249.54v-205a27.7,27.7,0,0,1,27.7-27.7h47.43v205a27.71,27.71,0,0,1-27.7,27.71Z" style="fill:#497458"/><path d="M1458.61,249.54v-205a27.7,27.7,0,0,1,27.7-27.7h47.43v205a27.71,27.71,0,0,1-27.7,27.71Z" style="fill:#497458"/></g></g></svg>