<svg xmlns="http://www.w3.org/2000/svg" viewBox="0 0 583.95 614.87"><g id="レイヤー_2" data-name="レイヤー 2"><g id="lab-logo-r"><path d="M285.91,614.87a13.2,13.2,0,0,1-13.19-13.2V530.88h27.11v57.83a5.28,5.28,0,0,0,5.28,5.28h31.52a10,10,0,0,1,10,10v10.88Z" style="fill:#80cde8"/><path d="M382.9,540.12c2.23-6.24,5.28-10.2,16.23-10.2,6.7,0,13,.84,16.23,10.2l26.27,74.75H424.77a10,10,0,0,1-9.52-6.92l-3.34-10.36H386.35L383,608a10,10,0,0,1-9.52,6.92H356.63Zm8.93,38.27h14.61l-6.39-21.23c-.21-.84-.51-1.8-.92-1.8s-.71,1-.91,1.8Z" style="fill:#80cde8"/><path d="M535,590.87c0,15.6-4.8,23.52-22.8,23.52h-47.4a13.2,13.2,0,0,1-13.2-13.2V543.6a13.2,13.2,0,0,1,13.2-13.2h44.44a23.78,23.78,0,0,1,23.84,24c-.12,8.19-3.29,15-12.6,16.81v.48C532.39,573.83,535,580.07,535,590.87Zm-56.28-28.2H500a6.13,6.13,0,0,0,6.19-6.06c0-4.74-2.66-5.82-7.44-5.82H483.55a4.8,4.8,0,0,0-4.8,4.8Zm0,25.32a6,6,0,0,0,6,6h16.3a6.78,6.78,0,0,0,6.85-6.9c-.18-4.47-3.25-5.94-7.91-5.94H478.75Z" style="fill:#80cde8"/><g id="角丸2"><path d="M181.61,603.51a10,10,0,0,1,10-10h37.64c4.13,0,4.89-1.32,4.89-2.64,0-2.52-2.76-3.36-5.65-4.2l-34-9.12c-11.4-3-14.79-13.08-14.79-25.07,0-13.2,5.52-22.08,20.56-22.08H258.2v10.88a10,10,0,0,1-10,10H213.58c-2.51,0-6,0-6,2.64,0,2.88,4,3.84,7.4,4.67l29.58,7.56c13.41,3.36,18.18,10.68,18.18,25.08s-5,23.16-21.31,23.16h-59.8Z" style="fill:#80cde8"/><path d="M59.8,614.19a10,10,0,0,0,10-10V564.55c0-4.13,1.32-4.88,2.64-4.88,2.52,0,3.36,2.75,4.2,5.64l9.12,34c3,11.4,13.08,14.79,25.08,14.79,13.2,0,22.08-5.52,22.08-20.56V530.6H122a10,10,0,0,0-10,10v39.62c0,2.51,0,6-2.64,6-2.88,0-3.84-4-4.68-7.4l-7.56-29.58c-3.36-13.41-10.68-18.17-25.08-18.17s-23.16,5-23.16,21.31v61.79Z" style="fill:#80cde8"/><path d="M143,614.39v-74a10,10,0,0,1,10-10h17.12v74a10,10,0,0,1-10,10Z" style="fill:#80cde8"/></g><circle cx="292.15" cy="237.63" r="232.63" style="fill:#0084b4;stroke:#80cde8;stroke-miterlimit:10;stroke-width:10px"/><path d="M22.13,380.86a28.77,28.77,0,0,0,40.69,0L265.14,178.54c8.41-8.42,12.63-7.26,15.31-4.57,5.13,5.12,1.23,12.44-2.93,20L227,281.64c-17.1,29.31-3.48,56.7,20.93,81.11,26.85,26.85,56.13,33.69,86.73,3.09L584,116.52,561.82,94.39a28.77,28.77,0,0,0-40.69,0l-201.95,202c-5.09,5.1-12.23,12.24-17.6,6.87-5.86-5.86.34-16,5.52-24.57l44.8-75.55c20.45-34.12,15.25-58.7-14-88s-57.31-36.91-90.46-3.76L0,358.73Z" style="fill:#80cde8"/></g></g></svg>