<svg xmlns="http://www.w3.org/2000/svg" width="583.949" height="475.25" viewBox="0 0 583.949 475.25">
  <g id="レイヤー_2" data-name="レイヤー 2">
    <g id="sche-logo-r">
      <g>
        <circle cx="292.15" cy="237.625" r="232.625" fill="#e7bc00" stroke="#f5dc7b" stroke-miterlimit="10" stroke-width="10"/>
        <path d="M22.13,380.861a28.768,28.768,0,0,0,40.685,0L265.136,178.54c8.415-8.415,12.631-7.259,15.317-4.573,5.125,5.125,1.223,12.444-2.933,20.016L226.969,281.64c-17.1,29.305-3.483,56.695,20.927,81.105,26.851,26.851,56.134,33.694,86.733,3.095l249.32-249.319L561.817,94.389a28.767,28.767,0,0,0-40.684,0L319.185,296.337c-5.1,5.1-12.24,12.239-17.609,6.87-5.859-5.859.348-15.971,5.524-24.564l44.8-75.557c20.448-34.119,15.249-58.7-14.043-87.991s-57.31-36.912-90.46-3.763L0,358.731Z" fill="#f5dc7b"/>
      </g>
    </g>
  </g>
</svg>
