<svg xmlns="http://www.w3.org/2000/svg" width="583.949" height="609.873" viewBox="0 0 583.949 609.873">
  <g id="レイヤー_2" data-name="レイヤー 2">
    <g id="sche-logo">
      <g>
        <g>
          <g>
            <path d="M505.528,609.873a10,10,0,0,0,10-10V560.237c0-4.137,1.321-4.889,2.641-4.889,2.52,0,3.359,2.758,4.2,5.641l9.12,33.97c3,11.406,13.079,14.791,25.079,14.791,13.2,0,22.079-5.515,22.079-20.557V526.281H567.767a10,10,0,0,0-10,10v39.625c0,2.506,0,6.016-2.64,6.016-2.88,0-3.84-4.011-4.68-7.395l-7.559-29.583c-3.361-13.413-10.68-18.176-25.079-18.176s-23.16,5.013-23.16,21.309v61.8Z" fill="#e7bc00"/>
            <path d="M425.6,535.116c2.231-6.24,5.274-10.2,16.229-10.2,6.694,0,12.983.841,16.229,10.2l26.271,74.757H467.471a10,10,0,0,1-9.516-6.928l-3.342-10.352H429.052l-3.342,10.352a10,10,0,0,1-9.516,6.928H399.333Zm8.926,38.278h14.606l-6.39-21.239c-.2-.84-.507-1.8-.913-1.8s-.71.96-.913,1.8Z" fill="#e7bc00"/>
            <path d="M328.615,609.392a13.2,13.2,0,0,1-13.2-13.2V525.4h27.118v57.837a5.28,5.28,0,0,0,5.281,5.28h31.518a10,10,0,0,1,10,10v10.879Z" fill="#e7bc00"/>
            <path d="M229.1,608.913v-70.8a13.2,13.2,0,0,1,13.2-13.2h33.935a29.223,29.223,0,0,1,29.18,29.144c.1,19.584-4.593,30.614-24,30.614h-25.2v14.239a10,10,0,0,1-10,10Zm37.678-45.118c7.166,0,10.767-1.9,10.8-9.02a9.056,9.056,0,0,0-9.122-8.979H261.5a5.279,5.279,0,0,0-5.279,5.279v12.72Z" fill="#e7bc00"/>
          </g>
          <g id="角丸2">
            <path d="M137.994,598.514a10,10,0,0,1,10-10H185.63c4.137,0,4.889-1.321,4.889-2.641,0-2.519-2.758-3.359-5.641-4.2l-33.97-9.12c-11.407-3-14.792-13.079-14.792-25.079,0-13.2,5.516-22.079,20.558-22.079h57.912v10.879a10,10,0,0,1-10,10H169.961c-2.507,0-6.016,0-6.016,2.64,0,2.88,4.011,3.84,7.4,4.68l29.583,7.559c13.412,3.361,18.176,10.68,18.176,25.079s-5.014,23.16-21.31,23.16H137.994Z" fill="#f5dc7b"/>
            <path d="M16.182,609.19a10,10,0,0,0,10-10V559.554c0-4.137,1.32-4.888,2.64-4.888,2.52,0,3.36,2.757,4.2,5.64l9.121,33.97c3,11.407,13.079,14.792,25.078,14.792,13.2,0,22.079-5.516,22.079-20.558V525.6H78.42a10,10,0,0,0-10,10v39.625c0,2.507,0,6.017-2.64,6.017-2.88,0-3.84-4.011-4.679-7.4l-7.56-29.583c-3.36-13.412-10.68-18.176-25.079-18.176S5.3,531.1,5.3,547.4v61.8Z" fill="#f5dc7b"/>
            <path d="M99.418,609.392v-74a10,10,0,0,1,10-10h17.119v74a10,10,0,0,1-10,10Z" fill="#f5dc7b"/>
          </g>
        </g>
        <g>
          <circle cx="292.15" cy="232.625" r="232.625" fill="#e7bc00"/>
          <path d="M22.13,375.861a28.768,28.768,0,0,0,40.685,0L265.136,173.54c8.415-8.415,12.631-7.259,15.317-4.573,5.125,5.125,1.223,12.444-2.933,20.016L226.969,276.64c-17.1,29.305-3.483,56.695,20.927,81.105,26.851,26.851,56.134,33.694,86.733,3.095l249.32-249.319L561.817,89.389a28.767,28.767,0,0,0-40.684,0L319.185,291.337c-5.1,5.1-12.24,12.239-17.609,6.87-5.859-5.859.348-15.971,5.524-24.564l44.8-75.557c20.448-34.119,15.249-58.7-14.043-87.991s-57.31-36.912-90.46-3.763L0,353.731Z" fill="#f5dc7b"/>
        </g>
      </g>
    </g>
  </g>
</svg>
