<svg xmlns="http://www.w3.org/2000/svg" width="583.949" height="615.274" viewBox="0 0 583.949 615.274">
  <g id="レイヤー_2" data-name="レイヤー 2">
    <g id="sche-logo-r">
      <g>
        <g>
          <path d="M505.528,614.774a10,10,0,0,0,10-10V565.138c0-4.137,1.321-4.889,2.641-4.889,2.52,0,3.359,2.758,4.2,5.641l9.12,33.97c3,11.407,13.079,14.791,25.079,14.791,13.2,0,22.079-5.515,22.079-20.557V531.182H567.767a10,10,0,0,0-10,10v39.625c0,2.507,0,6.016-2.64,6.016-2.88,0-3.84-4.011-4.68-7.395l-7.559-29.583c-3.361-13.412-10.68-18.176-25.079-18.176s-23.16,5.014-23.16,21.31v61.795Z" fill="#f5dc7b" stroke="#f5dc7b" stroke-miterlimit="10"/>
          <path d="M425.6,540.017c2.231-6.24,5.274-10.2,16.229-10.2,6.694,0,12.983.841,16.229,10.2l26.271,74.757H467.471a10,10,0,0,1-9.516-6.928L454.613,597.5H429.052l-3.342,10.351a10,10,0,0,1-9.516,6.928H399.333ZM434.53,578.3h14.606l-6.39-21.24c-.2-.84-.507-1.8-.913-1.8s-.71.96-.913,1.8Z" fill="#f5dc7b" stroke="#f5dc7b" stroke-miterlimit="10"/>
          <path d="M328.615,614.294a13.2,13.2,0,0,1-13.2-13.2V530.3h27.118v57.837a5.281,5.281,0,0,0,5.281,5.281h31.518a10,10,0,0,1,10,10v10.879Z" fill="#f5dc7b" stroke="#f5dc7b" stroke-miterlimit="10"/>
          <path d="M229.1,613.814v-70.8a13.2,13.2,0,0,1,13.2-13.2h33.935a29.223,29.223,0,0,1,29.18,29.144c.1,19.584-4.593,30.614-24,30.614h-25.2v14.239a10,10,0,0,1-10,10ZM266.777,568.7c7.166,0,10.767-1.9,10.8-9.02a9.057,9.057,0,0,0-9.122-8.979H261.5a5.279,5.279,0,0,0-5.279,5.279V568.7Z" fill="#f5dc7b" stroke="#f5dc7b" stroke-miterlimit="10"/>
        </g>
        <g id="角丸2">
          <path d="M137.994,603.415a10,10,0,0,1,10-10H185.63c4.137,0,4.889-1.32,4.889-2.641,0-2.519-2.758-3.359-5.641-4.2l-33.97-9.12c-11.407-3-14.792-13.079-14.792-25.079,0-13.2,5.516-22.079,20.558-22.079h57.912v10.88a10,10,0,0,1-10,10H169.961c-2.507,0-6.016,0-6.016,2.639,0,2.88,4.011,3.84,7.4,4.68l29.583,7.56c13.412,3.36,18.176,10.679,18.176,25.079s-5.014,23.159-21.31,23.159H137.994Z" fill="#f5dc7b"/>
          <path d="M16.182,614.092a10,10,0,0,0,10-10V564.455c0-4.136,1.32-4.888,2.64-4.888,2.52,0,3.36,2.758,4.2,5.64l9.121,33.971c3,11.406,13.079,14.791,25.078,14.791,13.2,0,22.079-5.516,22.079-20.558V530.5H78.42a10,10,0,0,0-10,10v39.625c0,2.507,0,6.017-2.64,6.017-2.88,0-3.84-4.011-4.679-7.4l-7.56-29.583c-3.36-13.412-10.68-18.175-25.079-18.175S5.3,536,5.3,552.3v61.8Z" fill="#f5dc7b"/>
          <path d="M99.418,614.294v-74a10,10,0,0,1,10-10h17.119v74a10,10,0,0,1-10,10Z" fill="#f5dc7b"/>
        </g>
      </g>
      <g>
        <circle cx="292.15" cy="237.625" r="232.625" fill="#e7bc00" stroke="#f5dc7b" stroke-miterlimit="10" stroke-width="10"/>
        <path d="M22.13,380.861a28.768,28.768,0,0,0,40.685,0L265.136,178.54c8.415-8.415,12.631-7.259,15.317-4.573,5.125,5.125,1.223,12.444-2.933,20.016L226.969,281.64c-17.1,29.305-3.483,56.695,20.927,81.105,26.851,26.851,56.134,33.694,86.733,3.095l249.32-249.319L561.817,94.389a28.767,28.767,0,0,0-40.684,0L319.185,296.337c-5.1,5.1-12.24,12.239-17.609,6.87-5.859-5.859.348-15.971,5.524-24.564l44.8-75.557c20.448-34.119,15.249-58.7-14.043-87.991s-57.31-36.912-90.46-3.763L0,358.731Z" fill="#f5dc7b"/>
      </g>
    </g>
  </g>
</svg>
